{
  "accessors": [
    {
      "bufferView": 2,
      "componentType": 5126,
      "count": 39,
      "max": [
        0.922914981842041,
        0.38050800561904907,
        3.368973970413208
      ],
      "min": [
        -0.030035000294446945,
        -0.5208759903907776,
        3.1853089332580566
      ],
      "type": "VEC3"
    },
    {
      "bufferView": 2,
      "byteOffset": 468,
      "componentType": 5126,
      "count": 39,
      "max": [
        0.617464005947113,
        0.35791000723838806,
        0.9831845164299011
      ],
      "min": [
        0.1318017691373825,
        -0.27310365438461304,
        0.777454674243927
      ],
      "type": "VEC3"
    },
    {
      "bufferView": 3,
      "componentType": 5126,
      "count": 39,
      "max": [
        0.19873976707458496,
        0.9944411516189575,
        0.30334407091140747,
        1.0
      ],
      "min": [
        -0.21746894717216492,
        -0.9970480799674988,
        -0.07675840705633163,
        1.0
      ],
      "type": "VEC4"
    },
    {
      "bufferView": 1,
      "componentType": 5126,
      "count": 39,
      "max": [
        0.9058480262756348,
        0.6600499749183655
      ],
      "min": [
        0.7678530216217041,
        0.4912180006504059
      ],
      "type": "VEC2"
    },
    {
      "bufferView": 0,
      "componentType": 5125,
      "count": 84,
      "type": "SCALAR"
    },
    {
      "bufferView": 2,
      "byteOffset": 936,
      "componentType": 5126,
      "count": 15046,
      "max": [
        1.5547889471054077,
        1.276097059249878,
        5.34140682220459
      ],
      "min": [
        -1.276097059249878,
        -2.2097129821777344,
        0.0009519999730400741
      ],
      "type": "VEC3"
    },
    {
      "bufferView": 2,
      "byteOffset": 181488,
      "componentType": 5126,
      "count": 15046,
      "max": [
        0.9997434020042419,
        0.9999576807022095,
        1.0
      ],
      "min": [
        -0.9998287558555603,
        -0.9996382594108582,
        -1.0
      ],
      "type": "VEC3"
    },
    {
      "bufferView": 3,
      "byteOffset": 624,
      "componentType": 5126,
      "count": 15046,
      "max": [
        1.0,
        1.0,
        0.9989643096923828,
        1.0
      ],
      "min": [
        -1.0,
        -1.0,
        -0.999986469745636,
        -1.0
      ],
      "type": "VEC4"
    },
    {
      "bufferView": 1,
      "byteOffset": 312,
      "componentType": 5126,
      "count": 15046,
      "max": [
        0.9928200244903564,
        0.989316999912262
      ],
      "min": [
        0.01918100006878376,
        0.012028999626636505
      ],
      "type": "VEC2"
    },
    {
      "bufferView": 0,
      "byteOffset": 336,
      "componentType": 5125,
      "count": 86238,
      "type": "SCALAR"
    }
  ],
  "asset": {
    "extras": {
      "author": "¡Jacques (https://sketchfab.com/iJacques)",
      "license": "CC-BY-4.0 (http://creativecommons.org/licenses/by/4.0/)",
      "source": "https://sketchfab.com/3d-models/ramen-noodles-2889104c361b43f39e6518932ca33dd3",
      "title": "Ramen Noodles"
    },
    "generator": "Sketchfab-12.65.0",
    "version": "2.0"
  },
  "bufferViews": [
    {
      "buffer": 0,
      "byteLength": 345288,
      "name": "floatBufferViews",
      "target": 34963
    },
    {
      "buffer": 0,
      "byteLength": 120680,
      "byteOffset": 345288,
      "byteStride": 8,
      "name": "floatBufferViews",
      "target": 34962
    },
    {
      "buffer": 0,
      "byteLength": 362040,
      "byteOffset": 465968,
      "byteStride": 12,
      "name": "floatBufferViews",
      "target": 34962
    },
    {
      "buffer": 0,
      "byteLength": 241360,
      "byteOffset": 828008,
      "byteStride": 16,
      "name": "floatBufferViews",
      "target": 34962
    }
  ],
  "buffers": [
    {
      "byteLength": 1069368,
      "uri": "scene.bin"
    }
  ],
  "images": [
    {
      "uri": "textures/Ramen_Bake_baseColor.png"
    },
    {
      "uri": "textures/Ramen_Bake_metallicRoughness.png"
    },
    {
      "uri": "textures/Ramen_Bake_normal.png"
    }
  ],
  "materials": [
    {
      "alphaCutoff": 0.20904388635699428,
      "alphaMode": "MASK",
      "doubleSided": true,
      "name": "Ramen_Bake",
      "normalTexture": {
        "index": 2
      },
      "pbrMetallicRoughness": {
        "baseColorTexture": {
          "index": 0
        },
        "metallicFactor": 0.0,
        "metallicRoughnessTexture": {
          "index": 1
        },
        "roughnessFactor": 0.36606229519524647
      }
    }
  ],
  "meshes": [
    {
      "name": "Object_0",
      "primitives": [
        {
          "attributes": {
            "NORMAL": 1,
            "POSITION": 0,
            "TANGENT": 2,
            "TEXCOORD_0": 3
          },
          "indices": 4,
          "material": 0,
          "mode": 4
        }
      ]
    },
    {
      "name": "Object_1",
      "primitives": [
        {
          "attributes": {
            "NORMAL": 6,
            "POSITION": 5,
            "TANGENT": 7,
            "TEXCOORD_0": 8
          },
          "indices": 9,
          "material": 0,
          "mode": 4
        }
      ]
    }
  ],
  "nodes": [
    {
      "children": [
        1
      ],
      "matrix": [
        1.0,
        0.0,
        0.0,
        0.0,
        0.0,
        2.220446049250313e-16,
        -1.0,
        0.0,
        0.0,
        1.0,
        2.220446049250313e-16,
        0.0,
        0.0,
        0.0,
        0.0,
        1.0
      ],
      "name": "Sketchfab_model"
    },
    {
      "children": [
        2,
        3
      ],
      "name": "Ramen Noodles.obj.cleaner.materialmerger.gles"
    },
    {
      "mesh": 0,
      "name": "Object_2"
    },
    {
      "mesh": 1,
      "name": "Object_3"
    }
  ],
  "samplers": [
    {
      "magFilter": 9729,
      "minFilter": 9987,
      "wrapS": 10497,
      "wrapT": 10497
    }
  ],
  "scene": 0,
  "scenes": [
    {
      "name": "Sketchfab_Scene",
      "nodes": [
        0
      ]
    }
  ],
  "textures": [
    {
      "sampler": 0,
      "source": 0
    },
    {
      "sampler": 0,
      "source": 1
    },
    {
      "sampler": 0,
      "source": 2
    }
  ]
}
